<svg width="35" height="35" viewBox="0 0 35 35" fill="none" xmlns="http://www.w3.org/2000/svg">
<g clip-path="url(#clip0_26_983)">
<path d="M29.1667 5.83398H5.83335C4.22919 5.83398 2.93127 7.14648 2.93127 8.75065L2.91669 26.2507C2.91669 27.8548 4.22919 29.1673 5.83335 29.1673H29.1667C30.7709 29.1673 32.0834 27.8548 32.0834 26.2507V8.75065C32.0834 7.14648 30.7709 5.83398 29.1667 5.83398ZM28.5834 12.0319L18.2729 18.4777C17.8063 18.7694 17.1938 18.7694 16.7271 18.4777L6.41669 12.0319C6.0521 11.7986 5.83335 11.4048 5.83335 10.9819C5.83335 10.0048 6.89794 9.42148 7.72919 9.9319L17.5 16.0423L27.2709 9.9319C28.1021 9.42148 29.1667 10.0048 29.1667 10.9819C29.1667 11.4048 28.9479 11.7986 28.5834 12.0319Z" fill="white"/>
</g>
<defs>
<clipPath id="clip0_26_983">
<rect width="35" height="35" fill="white"/>
</clipPath>
</defs>
</svg>
