<svg width="80" height="76" viewBox="0 0 80 76" fill="none" xmlns="http://www.w3.org/2000/svg">
<g clip-path="url(#clip0_10_242)">
<path d="M39.9998 0.599609C30.5018 0.59998 21.3138 3.77721 14.0799 9.56281C6.84593 15.3484 2.0381 23.3648 0.516638 32.1777C-1.00482 40.9905 0.859374 50.0247 5.77567 57.6638C10.692 65.3029 18.3395 71.0483 27.35 73.8721C29.35 74.2011 30.1 73.0732 30.1 72.0861C30.1 71.1931 30.0499 68.2321 30.0499 65.0831C20 66.8221 17.4 62.7803 16.6 60.6653C15.7123 58.6083 14.3051 56.7854 12.5 55.3542C11.1 54.6492 9.10005 52.9102 12.45 52.8633C13.7291 52.9938 14.956 53.4122 16.0265 54.083C17.0971 54.7539 17.9798 55.6575 18.6 56.7172C19.1471 57.641 19.8827 58.4543 20.7647 59.1104C21.6468 59.7665 22.6578 60.2526 23.7401 60.5407C24.8223 60.8289 25.9544 60.9135 27.0714 60.7897C28.1885 60.6658 29.2686 60.336 30.2498 59.8192C30.423 57.9077 31.3292 56.1205 32.7999 54.7903C23.8999 53.8503 14.6 50.6072 14.6 36.2255C14.5438 32.4886 16.0107 28.8731 18.7 26.1205C17.4771 22.8727 17.6202 19.3085 19.1 16.1566C19.1 16.1566 22.4498 15.1696 30.0999 20.0106C36.645 18.3185 43.5547 18.3185 50.0998 20.0106C57.7496 15.1226 61.0997 16.1566 61.0997 16.1566C62.5797 19.3085 62.7227 22.8728 61.4997 26.1205C64.197 28.8684 65.6652 32.487 65.5996 36.2255C65.5996 50.6543 56.2496 53.8503 47.3498 54.7903C48.3044 55.6998 49.0396 56.7918 49.5054 57.992C49.9713 59.1922 50.157 60.4726 50.0498 61.7463C50.0498 66.7753 49.9997 70.8171 49.9997 72.0862C49.9997 73.0732 50.7497 74.2482 52.7497 73.8722C61.7443 71.0254 69.3699 65.2665 74.2652 57.6235C79.1606 49.9806 81.0071 40.951 79.4751 32.1467C77.9431 23.3424 73.1323 15.3363 65.9015 9.55779C58.6707 3.77923 49.4906 0.604253 39.9998 0.599609Z" fill="white"/>
</g>
<defs>
<clipPath id="clip0_10_242">
<rect width="80" height="75.2" fill="white" transform="translate(0 0.599609)"/>
</clipPath>
</defs>
</svg>
