<svg width="80" height="80" viewBox="0 0 80 80" fill="none" xmlns="http://www.w3.org/2000/svg">
<g clip-path="url(#clip0_10_238)">
<path d="M56.2416 27.7118C55.8945 26.8129 55.363 25.9966 54.6812 25.3156C53.9995 24.6345 53.1826 24.1038 52.2833 23.7577C51.045 23.299 49.7371 23.0566 48.4166 23.041C46.2208 22.941 45.5625 22.916 40 22.916C34.4375 22.916 33.7791 22.941 31.5833 23.041C30.2615 23.0561 28.9521 23.2986 27.7125 23.7577C26.8135 24.1048 25.9972 24.6363 25.3162 25.3181C24.6351 25.9998 24.1044 26.8167 23.7583 27.716C23.2996 28.9543 23.0572 30.2623 23.0416 31.5827C22.9416 33.7785 22.9166 34.4368 22.9166 39.9993C22.9166 45.5618 22.9416 46.2202 23.0416 48.416C23.0568 49.7378 23.2992 51.0472 23.7583 52.2868C24.1054 53.1858 24.6369 54.0021 25.3187 54.6831C26.0004 55.3642 26.8173 55.8949 27.7166 56.241C28.9549 56.6997 30.2629 56.9421 31.5833 56.9577C33.7791 57.0577 34.4375 57.0827 40 57.0827C45.5625 57.0827 46.2208 57.0577 48.4166 56.9577C49.7385 56.9426 51.0478 56.7001 52.2875 56.241C53.1864 55.8939 54.0027 55.3624 54.6838 54.6806C55.3648 53.9989 55.8955 53.182 56.2416 52.2827C56.7003 51.0444 56.9427 49.7364 56.9583 48.416C57.0583 46.2202 57.0833 45.5618 57.0833 39.9993C57.0833 34.4368 57.0583 33.7785 56.9583 31.5827C56.9432 30.2609 56.7007 28.9515 56.2416 27.7118ZM40 50.6993C37.8837 50.6993 35.815 50.0718 34.0554 48.8961C32.2958 47.7203 30.9243 46.0492 30.1144 44.0941C29.3046 42.1389 29.0927 39.9875 29.5056 37.9119C29.9184 35.8363 30.9375 33.9297 32.4339 32.4333C33.9303 30.9369 35.8369 29.9178 37.9125 29.5049C39.9881 29.0921 42.1395 29.304 44.0947 30.1138C46.0498 30.9237 47.721 32.2951 48.8967 34.0547C50.0724 35.8144 50.7 37.8831 50.7 39.9993C50.7 42.8372 49.5726 45.5588 47.566 47.5654C45.5594 49.572 42.8378 50.6993 40 50.6993ZM51.1208 31.3785C50.6263 31.3785 50.143 31.2319 49.7319 30.9572C49.3207 30.6825 49.0003 30.292 48.8111 29.8352C48.6219 29.3784 48.5724 28.8757 48.6688 28.3908C48.7653 27.9058 49.0034 27.4604 49.353 27.1107C49.7027 26.7611 50.1481 26.523 50.6331 26.4266C51.118 26.3301 51.6207 26.3796 52.0775 26.5688C52.5343 26.758 52.9248 27.0785 53.1995 27.4896C53.4742 27.9007 53.6208 28.3841 53.6208 28.8785C53.6208 29.5416 53.3574 30.1774 52.8886 30.6463C52.4197 31.1151 51.7838 31.3785 51.1208 31.3785Z" fill="white"/>
<path d="M40 46.9454C43.8361 46.9454 46.9458 43.8356 46.9458 39.9995C46.9458 36.1635 43.8361 33.0537 40 33.0537C36.1639 33.0537 33.0541 36.1635 33.0541 39.9995C33.0541 43.8356 36.1639 46.9454 40 46.9454Z" fill="white"/>
<path d="M40 0C32.0888 0 24.3552 2.34596 17.7772 6.74122C11.1992 11.1365 6.07234 17.3836 3.04484 24.6927C0.0173313 32.0017 -0.774802 40.0444 0.768607 47.8036C2.31202 55.5629 6.12165 62.6902 11.7157 68.2843C17.3098 73.8784 24.4372 77.688 32.1964 79.2314C39.9556 80.7748 47.9983 79.9827 55.3074 76.9552C62.6164 73.9277 68.8635 68.8008 73.2588 62.2228C77.6541 55.6448 80 47.9113 80 40C80 29.3913 75.7857 19.2172 68.2843 11.7157C60.7828 4.21427 50.6087 0 40 0ZM60.7084 48.5917C60.6726 50.3191 60.3443 52.0281 59.7375 53.6458C59.2024 55.0295 58.3841 56.2861 57.3351 57.3351C56.2861 58.3841 55.0295 59.2024 53.6459 59.7375C52.0281 60.3443 50.3192 60.6726 48.5917 60.7083C46.3667 60.8083 45.6584 60.8333 40 60.8333C34.3417 60.8333 33.6334 60.8083 31.4083 60.7083C29.6809 60.6726 27.972 60.3443 26.3542 59.7375C24.9705 59.2024 23.7139 58.3841 22.6649 57.3351C21.6159 56.2861 20.7976 55.0295 20.2625 53.6458C19.6557 52.0281 19.3274 50.3191 19.2917 48.5917C19.1917 46.3667 19.1667 45.6583 19.1667 40C19.1667 34.3417 19.1917 33.6333 19.2917 31.4083C19.3274 29.6809 19.6557 27.9719 20.2625 26.3542C20.7976 24.9705 21.6159 23.7139 22.6649 22.6649C23.7139 21.6159 24.9705 20.7976 26.3542 20.2625C27.972 19.6557 29.6809 19.3274 31.4083 19.2917C33.6334 19.1917 34.3417 19.1667 40 19.1667C45.6584 19.1667 46.3667 19.1917 48.5917 19.2917C50.3192 19.3274 52.0281 19.6557 53.6459 20.2625C55.0295 20.7976 56.2861 21.6159 57.3351 22.6649C58.3841 23.7139 59.2024 24.9705 59.7375 26.3542C60.3443 27.9719 60.6726 29.6809 60.7084 31.4083C60.8083 33.6333 60.8334 34.3417 60.8334 40C60.8334 45.6583 60.8083 46.3667 60.7084 48.5917Z" fill="white"/>
</g>
<defs>
<clipPath id="clip0_10_238">
<rect width="80" height="80" fill="white"/>
</clipPath>
</defs>
</svg>
