<svg width="20" height="20" viewBox="0 0 20 20" fill="none" xmlns="http://www.w3.org/2000/svg">
<path d="M10.0917 12.825L6.85834 16.0583C6.46687 16.4361 5.94406 16.6473 5.40001 16.6473C4.85596 16.6473 4.33314 16.4361 3.94167 16.0583C3.74968 15.8671 3.59733 15.6398 3.49338 15.3896C3.38943 15.1393 3.33592 14.871 3.33592 14.6C3.33592 14.329 3.38943 14.0607 3.49338 13.8104C3.59733 13.5602 3.74968 13.3329 3.94167 13.1417L7.17501 9.90833C7.33193 9.75141 7.42008 9.53858 7.42008 9.31666C7.42008 9.09475 7.33193 8.88192 7.17501 8.725C7.01809 8.56808 6.80526 8.47992 6.58334 8.47992C6.36142 8.47992 6.14859 8.56808 5.99167 8.725L2.75834 11.9667C2.10697 12.6757 1.75469 13.6089 1.77507 14.5715C1.79545 15.534 2.18691 16.4515 2.8677 17.1323C3.54849 17.8131 4.46598 18.2046 5.42855 18.2249C6.39112 18.2453 7.32434 17.893 8.03334 17.2417L11.275 14.0083C11.4319 13.8514 11.5201 13.6386 11.5201 13.4167C11.5201 13.1947 11.4319 12.9819 11.275 12.825C11.1181 12.6681 10.9053 12.5799 10.6833 12.5799C10.4614 12.5799 10.2486 12.6681 10.0917 12.825ZM17.2417 2.75833C16.5407 2.06167 15.5925 1.67065 14.6042 1.67065C13.6159 1.67065 12.6677 2.06167 11.9667 2.75833L8.72501 5.99166C8.64731 6.06936 8.58567 6.1616 8.54362 6.26312C8.50157 6.36464 8.47993 6.47345 8.47993 6.58333C8.47993 6.69321 8.50157 6.80202 8.54362 6.90354C8.58567 7.00506 8.64731 7.0973 8.72501 7.175C8.80271 7.2527 8.89495 7.31433 8.99647 7.35638C9.09798 7.39843 9.20679 7.42007 9.31667 7.42007C9.42656 7.42007 9.53536 7.39843 9.63688 7.35638C9.7384 7.31433 9.83064 7.2527 9.90834 7.175L13.1417 3.94166C13.5331 3.56385 14.056 3.35271 14.6 3.35271C15.1441 3.35271 15.6669 3.56385 16.0583 3.94166C16.2503 4.1329 16.4027 4.36017 16.5066 4.61043C16.6106 4.86069 16.6641 5.12901 16.6641 5.4C16.6641 5.67099 16.6106 5.93931 16.5066 6.18957C16.4027 6.43982 16.2503 6.66709 16.0583 6.85833L12.825 10.0917C12.7469 10.1691 12.6849 10.2613 12.6426 10.3629C12.6003 10.4644 12.5785 10.5733 12.5785 10.6833C12.5785 10.7933 12.6003 10.9023 12.6426 11.0038C12.6849 11.1054 12.7469 11.1975 12.825 11.275C12.9025 11.3531 12.9946 11.4151 13.0962 11.4574C13.1977 11.4997 13.3067 11.5215 13.4167 11.5215C13.5267 11.5215 13.6356 11.4997 13.7372 11.4574C13.8387 11.4151 13.9309 11.3531 14.0083 11.275L17.2417 8.03333C17.9383 7.33231 18.3293 6.38414 18.3293 5.39583C18.3293 4.40752 17.9383 3.45935 17.2417 2.75833ZM7.35834 12.6417C7.43621 12.7189 7.52855 12.78 7.63008 12.8215C7.73162 12.8629 7.84033 12.884 7.95001 12.8833C8.05968 12.884 8.1684 12.8629 8.26993 12.8215C8.37146 12.78 8.46381 12.7189 8.54167 12.6417L12.6417 8.54166C12.7986 8.38474 12.8867 8.17192 12.8867 7.95C12.8867 7.72808 12.7986 7.51525 12.6417 7.35833C12.4848 7.20141 12.2719 7.11325 12.05 7.11325C11.8281 7.11325 11.6153 7.20141 11.4583 7.35833L7.35834 11.4583C7.28023 11.5358 7.21824 11.628 7.17593 11.7295C7.13362 11.8311 7.11184 11.94 7.11184 12.05C7.11184 12.16 7.13362 12.2689 7.17593 12.3705C7.21824 12.472 7.28023 12.5642 7.35834 12.6417Z" fill="white"/>
</svg>
