<svg width="80" height="80" viewBox="0 0 80 80" fill="none" xmlns="http://www.w3.org/2000/svg">
<g clip-path="url(#clip0_10_244)">
<path d="M43.9851 35.3843H44.0464V35.2879L43.9851 35.3843ZM43.9851 35.3843H44.0464V35.2879L43.9851 35.3843ZM43.9851 35.3843H44.0464V35.2879L43.9851 35.3843ZM43.9851 35.3843H44.0464V35.2879L43.9851 35.3843ZM43.9851 35.3843H44.0464V35.2879L43.9851 35.3843ZM43.9851 35.3843H44.0464V35.2879L43.9851 35.3843ZM43.9851 35.3843H44.0464V35.2879L43.9851 35.3843ZM43.9851 35.3843H44.0464V35.2879L43.9851 35.3843ZM43.9851 35.3843H44.0464V35.2879L43.9851 35.3843ZM43.9851 35.3843H44.0464V35.2879L43.9851 35.3843ZM43.9851 35.3843H44.0464V35.2879L43.9851 35.3843ZM43.9851 35.3843H44.0464V35.2879L43.9851 35.3843ZM43.9851 35.3843H44.0464V35.2879L43.9851 35.3843ZM43.9851 35.3843H44.0464V35.2879L43.9851 35.3843ZM43.9851 35.3843H44.0464V35.2879L43.9851 35.3843ZM43.9851 35.3843H44.0464V35.2879L43.9851 35.3843ZM40 0C32.0888 0 24.3552 2.34596 17.7772 6.74121C11.1992 11.1365 6.07234 17.3836 3.04484 24.6927C0.0173309 32.0017 -0.774802 40.0444 0.768607 47.8036C2.31202 55.5628 6.12165 62.6902 11.7157 68.2843C17.3098 73.8784 24.4372 77.688 32.1964 79.2314C39.9556 80.7748 47.9983 79.9827 55.3073 76.9552C62.6164 73.9277 68.8635 68.8008 73.2588 62.2228C77.654 55.6448 80 47.9112 80 40C79.9884 29.3949 75.7704 19.2275 68.2715 11.7285C60.7725 4.22959 50.6051 0.0115915 40 0ZM29.9978 58.0074C29.9955 58.1848 29.9235 58.3541 29.7972 58.4787C29.671 58.6032 29.5008 58.6731 29.3234 58.6731H21.616C21.4394 58.6731 21.2701 58.6029 21.1453 58.4781C21.0204 58.3533 20.9503 58.184 20.9503 58.0074V32.1086C20.9491 32.0205 20.9655 31.933 20.9984 31.8512C21.0314 31.7694 21.0802 31.695 21.1421 31.6322C21.2041 31.5695 21.2778 31.5197 21.3592 31.4857C21.4405 31.4517 21.5278 31.4342 21.616 31.4342H29.3234C29.412 31.4342 29.4997 31.4516 29.5815 31.4855C29.6633 31.5194 29.7377 31.5691 29.8003 31.6317C29.8629 31.6943 29.9126 31.7687 29.9465 31.8505C29.9804 31.9323 29.9978 32.02 29.9978 32.1086V58.0074ZM25.1982 27.9746C24.2402 27.9746 23.3038 27.6905 22.5073 27.1583C21.7108 26.6261 21.09 25.8697 20.7234 24.9847C20.3568 24.0996 20.2609 23.1258 20.4478 22.1862C20.6347 21.2467 21.096 20.3837 21.7733 19.7063C22.4507 19.029 23.3137 18.5677 24.2533 18.3808C25.1928 18.1939 26.1667 18.2898 27.0517 18.6564C27.9367 19.023 28.6931 19.6438 29.2253 20.4403C29.7576 21.2368 30.0416 22.1732 30.0416 23.1312C30.0428 23.7675 29.9183 24.3979 29.6753 24.986C29.4323 25.5742 29.0756 26.1086 28.6256 26.5586C28.1756 27.0085 27.6412 27.3653 27.053 27.6083C26.4649 27.8513 25.8345 27.9757 25.1982 27.9746ZM62.6144 58.0074C62.6121 58.1848 62.54 58.3541 62.4138 58.4787C62.2876 58.6032 62.1174 58.6731 61.94 58.6731H54.2325C54.1451 58.6731 54.0586 58.6559 53.9778 58.6224C53.8971 58.589 53.8237 58.5399 53.7619 58.4781C53.7001 58.4163 53.651 58.3429 53.6176 58.2622C53.5841 58.1814 53.5669 58.0948 53.5669 58.0074V44.0902C53.5669 40.4292 52.2619 37.9593 48.9862 37.9593C47.9655 37.965 46.9715 38.2862 46.1405 38.8789C45.3095 39.4716 44.682 40.3068 44.3442 41.27C44.1133 41.9819 44.0124 42.7295 44.0464 43.4771V58.0074C44.0464 58.1863 43.9754 58.3578 43.8489 58.4843C43.7224 58.6108 43.5509 58.6818 43.372 58.6818H35.6646C35.5764 58.6818 35.4891 58.6643 35.4078 58.6303C35.3265 58.5963 35.2527 58.5465 35.1908 58.4838C35.1288 58.421 35.08 58.3466 35.0471 58.2649C35.0141 58.1831 34.9978 58.0956 34.9989 58.0074C34.9989 54.3114 35.0953 36.3652 34.9989 32.1436C34.9978 32.0555 35.0141 31.968 35.0471 31.8862C35.08 31.8044 35.1288 31.73 35.1908 31.6673C35.2527 31.6045 35.3265 31.5547 35.4078 31.5207C35.4891 31.4867 35.5764 31.4692 35.6646 31.4692H43.3545C43.4434 31.4681 43.5316 31.4847 43.614 31.5182C43.6963 31.5516 43.7711 31.6013 43.834 31.6641C43.8969 31.727 43.9465 31.8018 43.98 31.8842C44.0135 31.9665 44.0301 32.0547 44.0289 32.1436V35.323C44.8482 33.9008 46.0413 32.7302 47.4787 31.9381C48.9162 31.146 50.5432 30.7627 52.1831 30.8299C58.1301 30.8299 62.5969 34.7186 62.5969 43.0917L62.6144 58.0074ZM44.0464 35.4105V35.3142L43.9851 35.4105H44.0464ZM43.9851 35.4105H44.0464V35.3142L43.9851 35.4105ZM43.9851 35.4105H44.0464V35.3142L43.9851 35.4105ZM43.9851 35.4105H44.0464V35.3142L43.9851 35.4105ZM43.9851 35.4105H44.0464V35.3142L43.9851 35.4105ZM43.9851 35.4105H44.0464V35.3142L43.9851 35.4105ZM43.9851 35.4105H44.0464V35.3142L43.9851 35.4105ZM43.9851 35.4105H44.0464V35.3142L43.9851 35.4105ZM43.9851 35.4105H44.0464V35.3142L43.9851 35.4105ZM43.9851 35.4105H44.0464V35.3142L43.9851 35.4105ZM43.9851 35.4105H44.0464V35.3142L43.9851 35.4105ZM43.9851 35.4105H44.0464V35.3142L43.9851 35.4105ZM43.9851 35.4105H44.0464V35.3142L43.9851 35.4105ZM43.9851 35.4105H44.0464V35.3142L43.9851 35.4105ZM43.9851 35.4105H44.0464V35.3142L43.9851 35.4105Z" fill="white"/>
</g>
<defs>
<clipPath id="clip0_10_244">
<rect width="80" height="80" fill="white"/>
</clipPath>
</defs>
</svg>
