<svg width="35" height="35" viewBox="0 0 35 35" fill="none" xmlns="http://www.w3.org/2000/svg">
<path d="M16.1109 10.9464C15.7282 6.54219 11.1363 4.38115 10.9419 4.29295C10.7603 4.2075 10.5567 4.18019 10.3589 4.21476C5.05773 5.09482 4.26035 8.18201 4.2283 8.31031C4.18468 8.4891 4.19162 8.6765 4.24833 8.85157C10.5713 28.4813 23.7121 32.1198 28.0316 33.3166C28.3641 33.4088 28.6386 33.483 28.847 33.5511C29.0847 33.6289 29.3431 33.6138 29.5702 33.509C29.7025 33.4489 32.8239 31.9775 33.5872 27.1783C33.6211 26.9688 33.5874 26.7539 33.491 26.5648C33.4229 26.4325 31.7901 23.3233 27.2622 22.2247C27.1086 22.1854 26.9478 22.184 26.7935 22.2207C26.6393 22.2574 26.4962 22.331 26.3767 22.4352C24.9482 23.6561 22.9748 24.9571 22.1233 25.0914C16.4154 22.2989 13.2279 16.9404 13.1077 15.924C13.0376 15.3527 14.3458 13.346 15.8504 11.7142C15.945 11.6115 16.017 11.4902 16.0619 11.3579C16.1068 11.2257 16.1235 11.0855 16.1109 10.9464Z" fill="white"/>
</svg>
